<svg viewBox="0 0 24 24" fill="none" xmlns="http://www.w3.org/2000/svg"><path d="M12 22c5.523 0 10-4.477 10-10S17.523 2 12 2 2 6.477 2 12s4.477 10 10 10z" fill="#FF4500"/><path d="M18.5 12c0-.828-.672-1.5-1.5-1.5-.398 0-.76.157-1.03.41C14.87 10.19 13.5 9.7 12 9.65l.7-3.3 2.3.5c.02.55.47 1 1.03 1 .57 0 1.03-.46 1.03-1.03s-.46-1.03-1.03-1.03c-.4 0-.75.23-.92.57l-2.57-.55c-.12-.03-.24.05-.27.17l-.78 3.68c-1.55.03-2.97.54-4.08 1.27A1.49 1.49 0 007 10.5c-.828 0-1.5.672-1.5 1.5 0 .6.35 1.11.86 1.35-.02.14-.03.28-.03.42 0 2.14 2.5 3.88 5.58 3.88s5.58-1.74 5.58-3.88c0-.14-.01-.28-.04-.42.52-.24.87-.75.87-1.35h-.32zM8.97 13.5c0-.57.46-1.03 1.03-1.03s1.03.46 1.03 1.03-.46 1.03-1.03 1.03-1.03-.46-1.03-1.03zm5.8 2.57c-.72.72-2.08.77-2.77.77s-2.05-.05-2.77-.77a.28.28 0 010-.39.28.28 0 01.39 0c.45.45 1.42.61 2.38.61s1.93-.16 2.38-.61a.28.28 0 01.39 0 .28.28 0 010 .39zm-.2-1.54c-.57 0-1.03-.46-1.03-1.03s.46-1.03 1.03-1.03 1.03.46 1.03 1.03-.46 1.03-1.03 1.03z" fill="#fff"/></svg>
