<svg viewBox="0 0 24 24" fill="none" xmlns="http://www.w3.org/2000/svg"><path d="M22.28 9.78a5.98 5.98 0 00-.51-4.91 6.05 6.05 0 00-6.52-2.93A5.98 5.98 0 0010.78.37a6.05 6.05 0 00-5.77 4.19 5.98 5.98 0 00-4 2.89 6.05 6.05 0 00.74 7.12 5.98 5.98 0 00.51 4.91 6.05 6.05 0 006.52 2.93 5.98 5.98 0 004.47 1.57 6.05 6.05 0 005.77-4.19 5.98 5.98 0 004-2.89 6.05 6.05 0 00-.74-7.12zM13.25 21.87a4.5 4.5 0 01-2.88-1.04l.14-.08 4.79-2.76a.78.78 0 00.39-.67v-6.74l2.02 1.17a.07.07 0 01.04.06v5.58a4.52 4.52 0 01-4.5 4.48zM3.57 17.83a4.49 4.49 0 01-.54-3.02l.14.09 4.79 2.76a.78.78 0 00.78 0l5.85-3.38v2.33a.07.07 0 01-.03.06l-4.84 2.8a4.52 4.52 0 01-6.15-1.64zM2.34 7.9A4.49 4.49 0 014.7 5.93v5.69a.78.78 0 00.39.67l5.85 3.37-2.02 1.17a.07.07 0 01-.07 0l-4.84-2.8A4.52 4.52 0 012.34 7.9zm17.08 3.97l-5.85-3.38 2.02-1.16a.07.07 0 01.07 0l4.84 2.8a4.52 4.52 0 01-.7 8.15v-5.74a.78.78 0 00-.38-.67zm2.01-3.03l-.14-.09-4.79-2.76a.78.78 0 00-.78 0l-5.85 3.38V6.04a.07.07 0 01.03-.06l4.84-2.8a4.52 4.52 0 016.69 4.66zM8.08 13.56l-2.02-1.17a.07.07 0 01-.04-.06V6.75a4.52 4.52 0 017.38-3.48l-.14.08-4.79 2.76a.78.78 0 00-.39.67v6.78zm1.1-2.37l2.6-1.5 2.61 1.5v3.01l-2.6 1.5-2.61-1.5v-3.01z" fill="#333"/></svg>
